<?xml version="1.0" encoding="UTF-8" standalone="no"?>
<!-- Created with Inkscape (http://www.inkscape.org/) -->

<svg
   xmlns:dc="http://purl.org/dc/elements/1.1/"
   xmlns:cc="http://creativecommons.org/ns#"
   xmlns:rdf="http://www.w3.org/1999/02/22-rdf-syntax-ns#"
   xmlns:svg="http://www.w3.org/2000/svg"
   xmlns="http://www.w3.org/2000/svg"
   xmlns:sodipodi="http://sodipodi.sourceforge.net/DTD/sodipodi-0.dtd"
   xmlns:inkscape="http://www.inkscape.org/namespaces/inkscape"
   width="17.272301mm"
   height="52.578331mm"
   viewBox="0 0 17.2723 52.578331"
   version="1.1"
   id="svg8"
   inkscape:version="0.92.4 (5da689c313, 2019-01-14)"
   sodipodi:docname="sayonarabiker.svg">
  <title
     id="title3864">Sayonara Biker</title>
  <defs
     id="defs2" />
  <sodipodi:namedview
     id="base"
     pagecolor="#ffffff"
     bordercolor="#666666"
     borderopacity="1.0"
     inkscape:pageopacity="0.0"
     inkscape:pageshadow="2"
     inkscape:zoom="4.2270265"
     inkscape:cx="32.167409"
     inkscape:cy="117.10358"
     inkscape:document-units="mm"
     inkscape:current-layer="layer1"
     showgrid="false"
     inkscape:window-width="1920"
     inkscape:window-height="1009"
     inkscape:window-x="1912"
     inkscape:window-y="-8"
     inkscape:window-maximized="1" />
  <metadata
     id="metadata5">
    <rdf:RDF>
      <cc:Work
         rdf:about="">
        <dc:format>image/svg+xml</dc:format>
        <dc:type
           rdf:resource="http://purl.org/dc/dcmitype/StillImage" />
        <dc:title>Sayonara Biker</dc:title>
      </cc:Work>
    </rdf:RDF>
  </metadata>
  <g
     inkscape:label="Layer 1"
     inkscape:groupmode="layer"
     id="layer1"
     transform="translate(-227.93105,-242.39334)">
    <path
       inkscape:connector-curvature="0"
       id="path3859"
       d="m 233.40865,292.06369 c -0.0716,-0.10923 -0.3236,-0.32275 -0.56007,-0.4745 -0.44966,-0.28854 -0.48374,-0.35974 -0.34578,-0.72256 0.0753,-0.19806 0.0429,-0.26547 -0.30792,-0.64052 -0.21564,-0.23053 -0.44535,-0.41916 -0.51047,-0.41916 -0.33577,0 -0.88358,-0.64742 -0.98545,-1.16462 -0.0696,-0.35358 0.0542,-0.62005 0.37344,-0.80323 0.14993,-0.0861 0.32267,-0.30159 0.42242,-0.52707 0.19344,-0.43731 0.36143,-0.55308 0.8026,-0.55308 0.51472,0 0.99054,0.17869 1.33342,0.50076 0.36611,0.3439 0.36871,0.40855 0.0501,1.24651 -0.17551,0.46162 -0.18481,0.54666 -0.0833,0.762 0.0983,0.20866 0.14518,1.54726 0.0981,2.80357 -0.009,0.24573 -0.12291,0.24252 -0.28712,-0.008 z m 7.74002,-28.42417 c -0.0999,-0.13517 -0.29061,-0.30209 -0.42371,-0.37092 -0.33456,-0.173 -0.37754,-0.48569 -0.12699,-0.92381 0.11034,-0.19296 0.20108,-0.45601 0.20164,-0.58455 6e-4,-0.12854 0.11758,-0.881 0.26005,-1.67212 0.14246,-0.79113 0.23727,-1.4736 0.21069,-1.51661 -0.0703,-0.11367 -0.55864,-0.20557 -0.64283,-0.12096 -0.15019,0.15095 -0.5882,2.69723 -0.58854,3.42139 -5.1e-4,1.09643 0.0582,1.07181 -1.60901,0.67504 -0.76835,-0.18286 -1.73609,-0.40114 -2.15054,-0.48508 -0.91242,-0.18479 -1.00622,-0.28466 -0.70563,-0.75134 0.18889,-0.29324 0.23195,-0.51396 0.36387,-1.86491 0.0823,-0.84277 0.12511,-1.59618 0.0951,-1.67425 -0.0409,-0.10653 -0.11301,-0.12802 -0.28916,-0.0862 -0.42582,0.10121 -0.50245,0.23849 -0.5559,0.99595 -0.0274,0.38786 -0.11521,1.09801 -0.1952,1.57812 -0.10999,0.66025 -0.12329,0.93154 -0.0546,1.11355 0.0785,0.20797 0.0663,0.25784 -0.0901,0.36736 -0.0995,0.0697 -0.32674,0.12672 -0.50496,0.12672 -0.17821,0 -0.43756,0.0587 -0.57631,0.13046 -0.13876,0.0718 -0.28926,0.10761 -0.33446,0.0797 -0.12768,-0.0789 -0.0968,-0.51597 0.0448,-0.63346 0.0699,-0.058 0.127,-0.20157 0.127,-0.3191 0,-0.11754 0.13335,-0.41461 0.29633,-0.66015 0.28593,-0.43077 0.29633,-0.47436 0.29633,-1.24142 0,-1.0656 -0.0451,-1.12341 -0.82472,-1.05804 -0.56146,0.0471 -0.60736,0.0375 -0.79572,-0.16639 -0.10994,-0.11898 -0.39992,-0.36526 -0.64439,-0.54729 l -0.4445,-0.33095 v -0.70558 c 0,-0.58812 0.0295,-0.74313 0.17744,-0.93115 0.10295,-0.13089 0.15509,-0.28379 0.12422,-0.36426 -0.0329,-0.0858 0.0399,-0.25458 0.19106,-0.44266 0.21969,-0.27338 0.24032,-0.35175 0.20492,-0.77867 -0.0377,-0.45437 -0.0189,-0.5095 0.43897,-1.28746 0.26309,-0.44702 0.51258,-0.83393 0.55443,-0.8598 0.0981,-0.0606 1.13413,-0.20292 1.95569,-0.26861 0.70837,-0.0566 1.00994,0.037 1.00994,0.31379 0,0.0922 -0.0559,0.38613 -0.1243,0.65318 -0.0684,0.26706 -0.19941,0.8814 -0.29122,1.36521 -0.0918,0.48381 -0.19865,0.91138 -0.23743,0.95016 -0.0388,0.0388 -0.20343,-0.10942 -0.36589,-0.32932 -0.16246,-0.2199 -0.48024,-0.52365 -0.70618,-0.67499 -0.35327,-0.23664 -0.48424,-0.27517 -0.93537,-0.27517 -0.66173,0 -0.83496,0.11275 -0.75875,0.49382 0.0633,0.31667 0.27649,0.43676 0.77881,0.43876 0.46549,0.002 0.71183,0.16719 0.94699,0.63553 l 0.21167,0.42156 0.68547,0.0244 c 0.48732,0.0173 0.71211,-0.008 0.77765,-0.0867 0.0507,-0.0611 0.23353,-0.95908 0.4063,-1.99553 l 0.31411,-1.88446 -0.1816,-0.1933 c -0.23751,-0.25282 -0.22915,-0.44272 0.0347,-0.78868 0.16908,-0.22168 0.25906,-0.27287 0.41209,-0.23446 0.18616,0.0467 0.2005,0.0174 0.29169,-0.59568 0.11915,-0.8011 0.12125,-1.12025 0.008,-1.19034 -0.15464,-0.0956 0.007,-1.06388 0.27164,-1.62773 0.26134,-0.55672 0.30994,-0.59252 0.57746,-0.42545 0.128,0.0799 0.18907,0.0807 0.26641,0.003 0.0773,-0.0773 0.0562,-0.13606 -0.0921,-0.25616 l -0.19243,-0.15583 0.47165,-0.32484 c 0.25941,-0.17866 0.57007,-0.47355 0.69034,-0.6553 0.32256,-0.48742 0.54704,-0.54178 1.08358,-0.26242 0.37867,0.19716 0.41241,0.23375 0.24029,0.26057 -0.27093,0.0422 -0.64662,0.27914 -0.84737,0.53435 -0.18847,0.2396 -0.96612,3.29656 -0.86518,3.40104 0.0601,0.0622 0.9582,-0.42977 1.76709,-0.96807 0.19927,-0.13261 0.40582,-0.2411 0.459,-0.2411 0.0532,0 0.16397,-0.0609 0.24619,-0.1353 0.2088,-0.18896 0.34428,-0.0839 0.24126,0.18703 -0.13702,0.3604 -0.59308,0.96953 -0.78705,1.05122 -0.10067,0.0424 -0.33544,0.18473 -0.52171,0.31629 -0.33876,0.23927 -0.47386,0.50002 -0.59578,1.14991 -0.0517,0.27539 -0.0355,0.31512 0.15814,0.38874 0.37508,0.1426 0.52391,0.63997 0.25764,0.86096 -0.16699,0.13859 -0.1303,0.74595 0.12734,2.10781 0.0925,0.48895 0.19128,1.0305 0.21952,1.20345 0.0377,0.2307 0.11247,0.344 0.28091,0.42543 0.18828,0.091 0.22772,0.16391 0.21929,0.40522 -0.006,0.16183 -0.0387,0.37996 -0.0734,0.48474 -0.0599,0.18076 -0.0412,0.1905 0.36512,0.1905 0.47505,0 0.61707,-0.0992 0.32971,-0.23026 -0.16892,-0.0771 -0.20754,-0.22118 -0.38338,-1.43055 -0.10755,-0.73967 -0.27146,-1.67866 -0.36425,-2.08663 -0.0928,-0.40797 -0.14543,-0.77945 -0.11696,-0.8255 0.0801,-0.12966 0.35964,-0.10152 1.27324,0.12818 1.64368,0.41325 1.44103,0.27773 1.91366,1.27971 0.39965,0.84726 0.41581,0.9095 0.36129,1.3914 -0.0514,0.45471 -0.0351,0.53764 0.16558,0.8409 0.12245,0.18505 0.22265,0.38284 0.22265,0.43955 0,0.0567 0.0976,0.24396 0.21693,0.41613 0.21309,0.30749 0.21524,0.32561 0.12098,1.02056 -0.0528,0.38913 -0.12182,0.72925 -0.15344,0.75584 -1.10873,0.93228 -1.02395,0.88489 -1.53078,0.85561 -0.26071,-0.0151 -0.66453,-0.0829 -0.89736,-0.15066 -0.40608,-0.11824 -0.42937,-0.11587 -0.5715,0.0579 -0.0815,0.0997 -0.14817,0.27657 -0.14817,0.39312 0,0.11656 -0.0641,0.60789 -0.14242,1.09185 -0.12264,0.7577 -0.12719,0.95654 -0.0328,1.43147 0.0875,0.44007 0.0885,0.60251 0.005,0.80377 -0.0808,0.19517 -0.082,0.30655 -0.005,0.49234 0.0764,0.18437 0.0761,0.29138 -0.001,0.46101 -0.14538,0.31908 -0.28511,0.33484 -0.49167,0.0555 z m -0.71262,-16.64338 c -0.0883,-0.0883 0.0235,-0.19985 0.20026,-0.19985 0.0904,0 0.16433,0.0572 0.16433,0.127 0,0.12558 -0.25992,0.17752 -0.36458,0.0728 z"
       style="fill:#f7f3f3;stroke-width:0.08466666" />
    <path
       inkscape:connector-curvature="0"
       id="path3855"
       d="m 232.67263,294.88507 c -0.25611,-0.0354 -0.80645,-0.10859 -1.22299,-0.16266 -1.28787,-0.16719 -1.54993,-0.24538 -1.74618,-0.521 -0.0974,-0.13671 -0.30264,-0.73371 -0.45621,-1.32668 -0.15356,-0.59296 -0.37591,-1.34481 -0.4941,-1.67078 -0.24049,-0.66322 -0.6117,-1.99499 -0.72378,-2.59661 l -0.0736,-0.39527 0.51694,-0.19208 c 0.3626,-0.13473 0.76547,-0.20301 1.34927,-0.22868 0.94833,-0.0417 1.06786,0.01 0.90955,0.39201 -0.0762,0.18406 -0.0796,0.33504 -0.013,0.58248 0.10693,0.39713 0.672,1.04115 0.91351,1.04115 0.0957,0 0.34481,0.18608 0.56647,0.42305 0.33174,0.35466 0.38152,0.44958 0.30792,0.5871 -0.17239,0.32211 -0.0994,0.48874 0.33649,0.76847 0.64693,0.41513 0.77203,0.64541 0.86699,1.5959 0.0606,0.60697 0.0544,0.92511 -0.0243,1.23982 -0.14658,0.58631 -0.14188,0.58416 -1.01302,0.46378 z m 0.91894,-5.70652 c -0.0978,-0.21461 -0.0955,-0.22474 0.25928,-1.12614 l 0.17402,-0.44221 -0.34455,-0.31879 c -0.36951,-0.34189 -0.85346,-0.5291 -1.37308,-0.53117 -0.43201,-0.002 -0.62651,0.11583 -0.77342,0.46743 -0.19744,0.47254 -0.32392,0.37184 -0.2431,-0.19355 0.0915,-0.63982 0.0658,-1.22145 -0.15023,-3.40783 -0.16727,-1.69277 -0.17237,-1.94319 -0.0728,-3.57336 0.0649,-1.06227 0.0815,-2.09648 0.0422,-2.62467 -0.0357,-0.4794 -0.0604,-0.96689 -0.055,-1.08331 0.005,-0.11641 0.008,-0.64981 0.006,-1.18533 -0.003,-0.9292 -0.019,-1.01311 -0.33987,-1.83732 -0.4299,-1.10423 -0.51098,-1.76184 -0.26608,-2.15809 l 0.17574,-0.28435 -0.16234,-0.71762 c -0.1395,-0.61668 -0.15519,-0.92008 -0.11151,-2.15695 0.0482,-1.36576 0.0625,-1.45881 0.27835,-1.82034 0.12514,-0.20955 0.29456,-0.55052 0.3765,-0.75772 0.18677,-0.47232 0.94355,-1.54814 1.39984,-1.98996 0.1901,-0.18408 0.34564,-0.36587 0.34564,-0.40398 0,-0.0381 0.10223,-0.22378 0.22717,-0.41258 0.27007,-0.40808 0.89368,-0.75376 1.35984,-0.75376 0.17746,0 0.40406,-0.057 0.50357,-0.12672 0.15636,-0.10952 0.16859,-0.15939 0.0901,-0.36736 -0.0687,-0.18201 -0.0554,-0.4533 0.0546,-1.11355 0.08,-0.48011 0.16782,-1.19026 0.1952,-1.57812 0.0534,-0.75746 0.13008,-0.89474 0.5559,-0.99595 0.17616,-0.0419 0.24828,-0.0204 0.28917,0.0862 0.03,0.0781 -0.0129,0.83148 -0.0951,1.67425 -0.13193,1.35095 -0.17499,1.57167 -0.36387,1.86491 -0.30059,0.46668 -0.2068,0.56655 0.70563,0.75134 0.41445,0.0839 1.38219,0.30222 2.15054,0.48508 1.66716,0.39677 1.60849,0.42139 1.60901,-0.67504 3.3e-4,-0.72416 0.43835,-3.27044 0.58854,-3.42139 0.0842,-0.0846 0.57258,0.007 0.64283,0.12096 0.0266,0.043 -0.0682,0.72548 -0.21069,1.51661 -0.14247,0.79112 -0.25949,1.54358 -0.26005,1.67212 -5.9e-4,0.12854 -0.0913,0.39159 -0.20164,0.58455 -0.24833,0.43425 -0.20723,0.75098 0.11935,0.91987 0.12891,0.0667 0.35722,0.27629 0.50735,0.46585 l 0.27297,0.34465 -0.14268,0.7374 c -0.18448,0.95349 -0.0929,1.72287 0.36688,3.08369 0.38384,1.13591 0.41562,1.54669 0.30977,4.0037 -0.05,1.15994 -0.0953,1.51742 -0.23363,1.84161 -0.1567,0.3673 -0.16696,0.51456 -0.11781,1.69334 0.0296,0.71008 0.0581,1.3482 0.0633,1.41805 0.0196,0.26171 -0.25875,1.42589 -0.45675,1.91038 -0.11299,0.27644 -0.35431,0.73798 -0.53627,1.02563 -0.71668,1.13294 -2.78667,3.61029 -4.47972,5.36133 -0.29266,0.30268 -0.7309,0.87418 -0.97386,1.27 -0.24296,0.39581 -0.59193,0.87556 -0.77549,1.06611 -0.28814,0.2991 -0.34447,0.42209 -0.41214,0.89994 -0.13406,0.94665 -0.31864,1.2291 -0.5177,0.79221 z m 1.46119,-8.3251 c 0.58728,-0.96808 1.96594,-2.60656 2.44782,-2.90911 0.20631,-0.12954 0.21761,-0.17558 0.22841,-0.93133 0.0108,-0.75923 -0.004,-0.82706 -0.32117,-1.50528 -0.31392,-0.6705 -0.33261,-0.75573 -0.33415,-1.524 -9e-4,-0.44758 -0.0508,-1.0036 -0.11098,-1.2356 -0.1067,-0.41161 -0.1221,-0.42682 -0.63595,-0.62819 -0.39582,-0.15512 -0.55069,-0.18227 -0.62363,-0.10933 -0.14105,0.14105 -0.39651,1.96292 -0.40152,2.86348 -0.003,0.55232 -0.0379,0.80067 -0.12202,0.8705 -0.12294,0.10203 -0.12393,0.82555 -0.003,1.92122 0.0336,0.30335 0.0197,0.6353 -0.0337,0.80433 -0.05,0.1583 -0.15211,0.77577 -0.22692,1.37215 -0.0748,0.59639 -0.15712,1.13931 -0.18291,1.2065 -0.0964,0.25122 0.13394,0.11034 0.31937,-0.19534 z m 6.93602,-21.37833 c 0.004,-0.29818 0.28288,-0.5715 0.58226,-0.5715 0.35645,0 0.33714,0.1794 -0.054,0.50184 -0.37462,0.30879 -0.53207,0.32956 -0.52823,0.0697 z m -0.97547,-3.21733 c 0.0347,-0.10478 0.0677,-0.32291 0.0734,-0.48474 0.008,-0.24131 -0.031,-0.3142 -0.21929,-0.40522 -0.16844,-0.0814 -0.24325,-0.19473 -0.28091,-0.42543 -0.0282,-0.17295 -0.12667,-0.7145 -0.21874,-1.20345 -0.34354,-1.82444 -0.31463,-2.20285 0.16808,-2.20003 0.33615,0.002 0.49137,0.12405 0.35959,0.28283 -0.0856,0.1032 -0.0734,0.27098 0.0639,0.87429 0.0934,0.41062 0.25788,1.35177 0.36543,2.09144 0.17584,1.20937 0.21446,1.35349 0.38338,1.43055 0.28736,0.13108 0.14534,0.23026 -0.32971,0.23026 -0.40632,0 -0.42499,-0.01 -0.36512,-0.1905 z m -6.37414,-0.84667 c -0.0474,-0.0582 -0.14142,-0.23918 -0.20892,-0.40217 -0.17494,-0.42243 -0.32412,-0.51464 -0.96019,-0.59352 -0.63343,-0.0786 -0.67231,-0.10339 -0.75161,-0.48009 -0.0733,-0.34805 0.10366,-0.45039 0.77871,-0.45039 0.4002,0 0.57061,0.0467 0.87506,0.23977 0.41194,0.26124 0.79677,0.67467 0.88408,0.94977 0.16269,0.5126 0.38167,-0.18331 0.86433,-2.74691 0.0356,-0.18904 0.002,-0.27828 -0.14677,-0.39055 -0.25584,-0.19297 -0.14997,-0.33808 0.24665,-0.33808 0.21225,0 0.37195,0.0568 0.47269,0.16812 0.14685,0.16227 0.14122,0.23371 -0.16172,2.05114 -0.17263,1.03566 -0.35416,1.93155 -0.4034,1.99088 -0.12141,0.1463 -1.37002,0.148 -1.48891,0.002 z m 1.51808,-4.953 c -0.0996,-0.19826 -0.17693,-0.58281 -0.20592,-1.02392 -0.0374,-0.56971 -0.0806,-0.7383 -0.22323,-0.87113 -0.10137,-0.0944 -0.1768,-0.27026 -0.1768,-0.41212 0,-0.14369 -0.0759,-0.31809 -0.18101,-0.41604 -0.1462,-0.13621 -0.17135,-0.23048 -0.13077,-0.49013 0.0276,-0.17682 0.0907,-0.58419 0.14009,-0.90526 0.12542,-0.81512 0.41088,-1.28041 1.31392,-2.14158 1.55255,-1.48056 1.815,-1.6526 2.67998,-1.75673 0.80645,-0.0971 2.04509,0.35579 2.45864,0.89893 0.65814,0.8644 0.82824,1.70667 0.56621,2.80373 -0.13869,0.58071 -0.22135,0.74444 -0.59152,1.17173 -0.23665,0.27318 -0.48255,0.49669 -0.54643,0.49669 -0.0639,0 -0.27919,0.10849 -0.47846,0.2411 -0.71439,0.47541 -1.69378,1.02706 -1.75559,0.98886 -0.0926,-0.0572 0.69098,-3.18297 0.86013,-3.4313 0.14814,-0.21749 0.57187,-0.47463 0.87182,-0.52903 0.12858,-0.0233 0.0633,-0.0855 -0.2712,-0.25826 -0.53677,-0.27725 -0.76148,-0.22245 -1.08357,0.26426 -0.12028,0.18175 -0.43093,0.47664 -0.69034,0.6553 l -0.47166,0.32484 0.19244,0.15583 c 0.24132,0.19541 0.11485,0.38796 -0.15868,0.24157 -0.28417,-0.15208 -0.33383,-0.11555 -0.5936,0.43666 -0.28564,0.60722 -0.42137,1.4447 -0.26474,1.63343 0.0782,0.0942 0.0774,0.31412 -0.004,0.97577 -0.10203,0.83292 -0.10955,0.8529 -0.30282,0.80439 -0.15371,-0.0386 -0.24047,0.007 -0.38659,0.20509 -0.24793,0.33534 -0.37365,0.32143 -0.5666,-0.0627 z m 4.67979,-3.58676 c -0.0614,-0.0994 -0.35195,-0.0963 -0.41419,0.004 -0.0772,0.12496 0.22988,0.26215 0.35479,0.15849 0.0582,-0.0483 0.0849,-0.12159 0.0594,-0.16288 z m -1.01256,3.81557 c -0.0575,-0.093 0.0993,-0.86765 0.22498,-1.11157 0.0696,-0.13501 0.78462,-0.66241 0.89813,-0.66241 0.0296,0 0.14703,-0.0857 0.26099,-0.1905 l 0.20719,-0.1905 -0.0591,0.55034 c -0.0661,0.61505 -0.15856,0.79235 -0.69066,1.32445 -0.36228,0.36228 -0.71763,0.4806 -0.84149,0.28019 z"
       style="fill:#060202;stroke-width:0.08466666" />
  </g>
</svg>
