<?xml version="1.0" encoding="UTF-8" standalone="no"?>
<!-- Created with Inkscape (http://www.inkscape.org/) -->

<svg
   width="102.5574mm"
   height="110.52063mm"
   viewBox="0 0 102.55739 110.52064"
   version="1.1"
   id="svg2003"
   inkscape:version="1.1.2 (0a00cf5339, 2022-02-04, custom)"
   sodipodi:docname="totoro.svg"
   xmlns:inkscape="http://www.inkscape.org/namespaces/inkscape"
   xmlns:sodipodi="http://sodipodi.sourceforge.net/DTD/sodipodi-0.dtd"
   xmlns="http://www.w3.org/2000/svg"
   xmlns:svg="http://www.w3.org/2000/svg">
  <sodipodi:namedview
     id="namedview2005"
     pagecolor="#ffffff"
     bordercolor="#666666"
     borderopacity="1.0"
     inkscape:pageshadow="2"
     inkscape:pageopacity="0.0"
     inkscape:pagecheckerboard="0"
     inkscape:document-units="mm"
     showgrid="false"
     inkscape:zoom="1.1617852"
     inkscape:cx="160.95918"
     inkscape:cy="207.86974"
     inkscape:window-width="1366"
     inkscape:window-height="703"
     inkscape:window-x="0"
     inkscape:window-y="0"
     inkscape:window-maximized="1"
     inkscape:current-layer="layer1" />
  <defs
     id="defs2000" />
  <g
     inkscape:label="Layer 1"
     inkscape:groupmode="layer"
     id="layer1"
     transform="translate(-126.47848,-48.98241)">
    <path
       style="fill:#000000;stroke-width:0.264583"
       d="m 167.44118,159.20817 c -0.17463,-0.17462 -0.3175,-0.47228 -0.3175,-0.66146 0,-0.56525 -1.22638,-0.39215 -1.6405,0.23156 -0.52916,0.79694 -1.26992,0.47561 -1.26992,-0.55088 0,-0.51077 -0.28458,-1.09235 -0.81324,-1.66195 -1.09701,-1.18199 -1.7594,-2.52051 -2.21609,-4.47819 -0.20969,-0.89883 -0.47707,-1.71633 -0.59419,-1.81668 -0.11711,-0.10034 -0.80825,-0.39815 -1.53586,-0.66181 -7.08651,-2.56784 -12.71882,-8.05232 -14.80164,-14.41312 -0.78906,-2.40974 -1.28122,-5.88216 -1.16144,-8.19446 l 0.0881,-1.70053 -1.85208,-0.45041 c -1.01864,-0.24772 -3.19066,-0.76708 -4.8267,-1.15413 -1.63604,-0.38705 -3.87214,-0.9967 -4.96911,-1.35479 -1.09698,-0.35809 -2.25871,-0.66047 -2.58163,-0.67196 -0.32293,-0.0115 -0.43831,-0.0809 -0.25641,-0.15434 0.51758,-0.20885 0.40019,-0.93709 -0.13229,-0.82064 -0.25467,0.0557 -0.43326,0.24301 -0.39688,0.41627 0.0364,0.17326 -0.0529,0.31502 -0.19844,0.31502 -0.3458,0 -0.34248,-0.71437 0.004,-0.92871 0.39313,-0.24297 0.0465,-0.65879 -0.5491,-0.65879 -0.6043,0 -0.69412,-0.74107 -0.11667,-0.96265 0.63168,-0.2424 0.46018,-0.62485 -0.2802,-0.62485 -0.37239,0 -0.6104,-0.10788 -0.52891,-0.23975 0.0815,-0.13186 0.37274,-0.18101 0.64722,-0.10924 0.27447,0.0718 0.57903,0.001 0.67681,-0.15713 0.1028,-0.16634 -0.0226,-0.28763 -0.29744,-0.28763 -1.2017,0 6.51143,-4.64571 13.58296,-8.18119 2.06046,-1.03013 3.87616,-1.87298 4.0349,-1.87298 0.15874,0 0.28861,-0.42474 0.28861,-0.94387 0,-0.77553 -0.0826,-0.91906 -0.46302,-0.80475 -1.16027,0.34861 -6.51144,1.47694 -6.5973,1.39108 -0.11485,-0.11486 2.19774,-0.95113 4.94366,-1.78771 1.0914,-0.33251 2.08548,-0.68823 2.20907,-0.7905 0.12358,-0.10226 -0.94799,-0.26059 -2.38125,-0.35184 -4.60494,-0.29319 -5.18878,-0.60765 -1.28303,-0.69106 1.89177,-0.0404 3.58841,-0.0679 3.77031,-0.0612 0.6973,0.0259 0.2429,-0.26559 -2.38125,-1.52754 -3.07303,-1.47782 -2.6863,-1.72331 0.75384,-0.47852 1.52359,0.55129 2.42919,0.75274 2.67618,0.59531 0.20533,-0.13088 0.77047,-1.15262 1.25585,-2.270537 0.69975,-1.611635 0.80592,-2.061969 0.51265,-2.174507 -0.20343,-0.07806 -0.36987,-0.383794 -0.36987,-0.679405 0,-0.30524 -0.17431,-0.53747 -0.40343,-0.53747 -0.22188,0 -0.5115,-0.284276 -0.6436,-0.631724 -0.27583,-0.725482 -0.86986,-7.593757 -0.67373,-7.789876 0.33432,-0.334325 3.08325,2.96809 4.10941,4.936831 0.31636,0.606936 0.74176,1.103519 0.94535,1.103519 0.20359,0 0.37016,0.178594 0.37016,0.396875 0,0.541576 0.007,0.53902 1.95776,-0.6839 2.16377,-1.356683 4.8512,-2.274713 7.85753,-2.684153 2.06017,-0.28058 2.29307,-0.365591 1.9832,-0.72389 -0.39098,-0.452067 -0.4725,-2.100569 -0.12579,-2.543688 0.12292,-0.157099 0.34434,-1.66416 0.49204,-3.34903 0.14771,-1.684869 0.34328,-3.258116 0.4346,-3.496104 0.28946,-0.754316 1.1277,0.281493 2.45183,3.029723 0.90518,1.878708 1.21846,2.847666 1.24037,3.836459 0.0161,0.727604 0.12092,1.532792 0.23287,1.789305 0.1173,0.268785 0.0724,0.624388 -0.10594,0.839293 -0.25307,0.30494 0.0278,0.569873 1.54109,1.453692 1.01782,0.594435 2.0111,1.142392 2.20729,1.217679 0.25151,0.09651 0.58423,-0.533416 1.12801,-2.135574 0.4242,-1.249854 0.87133,-2.334294 0.99361,-2.409867 0.2564,-0.15847 0.0937,0.630658 -0.65178,3.162133 -0.29155,0.989997 -0.4709,1.859198 -0.39854,1.931559 0.0724,0.07236 0.88955,-0.510154 1.81598,-1.294474 2.50503,-2.120773 3.29511,-2.406634 1.55212,-0.561573 -0.80036,0.847236 -1.66356,1.701329 -1.91823,1.897984 -0.25466,0.196657 -0.46302,0.470953 -0.46302,0.609549 0,0.138597 1.20164,-0.351014 2.6703,-1.088025 1.46867,-0.73701 2.85086,-1.303641 3.07155,-1.259183 0.22069,0.04446 -0.80778,0.785595 -2.28548,1.64697 -1.47771,0.861375 -2.73661,1.646828 -2.79756,1.745451 -0.061,0.09862 0.22807,0.504 0.64228,0.900835 l 0.75311,0.721524 1.55259,-0.78074 c 3.44518,-1.73245 12.42697,-4.914316 18.08905,-6.408175 1.23692,-0.326347 2.34982,-0.684379 2.4731,-0.795628 0.12328,-0.11125 -0.0289,-3.101782 -0.33815,-6.645627 -0.30926,-3.543848 -0.74294,-8.526953 -0.96373,-11.073568 -0.57855,-6.672966 -0.50056,-6.35 -1.53346,-6.35 -2.60024,0 -7.82507,1.279523 -12.30282,3.012872 -2.30374,0.891783 -2.55573,0.936966 -3.57187,0.640455 -0.60131,-0.175455 -2.52203,-0.32123 -4.26828,-0.32394 -3.33003,-0.0052 -5.44404,0.418428 -7.2099,1.444692 -1.00785,0.585729 -1.0636,0.368691 -0.29452,-1.146599 2.3338,-4.598223 8.09062,-9.866227 15.60399,-14.279054 3.807,-2.235964 7.87225,-3.945955 10.28897,-4.327915 0.65484,-0.103497 1.32198,-0.366319 1.48252,-0.584048 0.25826,-0.350253 0.36085,-0.347574 0.89027,0.02325 0.32911,0.230515 0.75853,0.357663 0.95427,0.282551 0.59908,-0.229889 6.62146,0.416293 9.32977,1.001056 6.54424,1.412993 13.81494,4.611433 18.29942,8.050068 1.29995,0.996786 4.49792,4.143412 4.49792,4.425712 0,0.06076 -0.80368,-0.04509 -1.78594,-0.235215 -4.79325,-0.927772 -10.90327,-0.124304 -13.81521,1.816698 l -1.18135,0.78745 -3.16977,-0.44955 c -3.4866,-0.494486 -10.91652,-0.596358 -11.35716,-0.155718 -0.17557,0.175572 -0.12218,1.573852 0.15943,4.175501 0.23287,2.15134 0.81132,7.513169 1.28544,11.915174 0.85456,7.934178 0.86734,8.003647 1.47267,8.003647 0.3664,0 0.61064,0.158739 0.61064,0.396875 0,0.218281 0.11906,0.396875 0.26458,0.396875 0.41283,0 0.31082,1.52437 -0.16337,2.441355 -0.40076,0.77497 -0.39754,0.849823 0.0506,1.177486 0.6907,0.505052 1.61988,0.430341 2.22948,-0.179259 0.39949,-0.399492 0.52916,-0.881943 0.52916,-1.968759 0,-0.791776 0.11472,-1.510496 0.25494,-1.597152 0.42283,-0.261324 1.29104,0.826547 1.48506,1.860796 0.41891,2.232943 -1.61964,4.017465 -4.27614,3.743291 l -1.37465,-0.141878 -0.85319,1.18804 c -0.46925,0.65342 -3.10276,3.510571 -5.85224,6.34922 -3.04655,3.14536 -4.92648,5.28203 -4.81323,5.47059 0.1022,0.17016 0.59628,0.95492 1.09796,1.74389 2.08659,3.28154 3.50965,7.48908 4.02122,11.88946 0.65559,5.63911 -0.77893,11.61562 -4.14587,17.27261 l -0.73078,1.22781 0.82324,0.93761 c 0.92605,1.05472 1.00807,1.26193 1.3798,3.48593 0.14593,0.87313 0.34688,1.8705 0.44654,2.21639 0.17077,0.59268 0.1256,0.6224 -0.78448,0.51615 -0.93883,-0.1096 -0.96568,-0.0885 -0.96568,0.76017 0,0.91866 -0.48805,1.14428 -1.32291,0.61158 -0.30963,-0.19756 -0.42596,-0.0997 -0.52917,0.44524 -0.17903,0.94526 -0.58223,1.01676 -1.48805,0.26389 -0.54196,-0.45046 -1.23108,-0.68025 -2.3949,-0.79859 -0.89869,-0.0914 -2.14885,-0.41495 -2.77812,-0.71905 l -1.14414,-0.55291 -2.24896,1.32269 c -3.8091,2.24026 -3.73951,2.17984 -4.30729,3.73965 -0.29133,0.80037 -0.91994,2.05052 -1.3969,2.77813 -0.63728,0.97216 -0.82968,1.51583 -0.72566,2.05052 0.14773,0.75939 -0.21708,0.95048 -0.94001,0.49239 -0.58802,-0.3726 -1.85047,0.26872 -2.13485,1.08451 -0.28049,0.80459 -0.53672,0.90969 -1.0257,0.4207 z m 0.74083,-0.62416 c 0,-0.20969 -0.17859,-0.38126 -0.39688,-0.38126 -0.39852,0 -0.54389,0.55854 -0.22767,0.87476 0.24692,0.24692 0.62455,-0.0515 0.62455,-0.4935 z m -2.97658,-0.69233 c -0.52206,-0.33148 -0.72759,-0.25607 -0.72759,0.26698 0,0.7321 0.34102,0.92394 0.72033,0.40521 0.26966,-0.36878 0.27113,-0.50464 0.007,-0.67219 z m 6.15158,-0.61497 c 0,-0.21828 -0.17859,-0.39687 -0.39688,-0.39687 -0.41316,0 -0.52492,0.31292 -0.22048,0.61736 0.30444,0.30444 0.61736,0.19268 0.61736,-0.22049 z m 16.13958,-8.44189 c 0,-0.50643 -0.10826,-0.60838 -0.52916,-0.49831 -0.60751,0.15886 -0.66156,0.36761 -0.21167,0.81749 0.48866,0.48867 0.74083,0.38002 0.74083,-0.31918 z m 2.11667,-0.67062 c 0,-0.63465 -0.3055,-0.84653 -0.78937,-0.54749 -0.3037,0.1877 -0.30735,0.29911 -0.0211,0.644 0.46927,0.56545 0.81048,0.52481 0.81048,-0.0965 z m 1.84803,-1.27238 c -0.002,-0.10914 -0.11633,-0.37604 -0.25356,-0.5931 -0.18861,-0.29832 -0.32409,-0.3201 -0.55498,-0.0892 -0.16801,0.168 -0.22547,0.43489 -0.1277,0.5931 0.20031,0.3241 0.94248,0.39481 0.93624,0.0892 z m -21.69178,-0.70702 c 6.02298,-1.28564 11.89243,-4.74911 15.59535,-9.20258 2.01015,-2.41759 4.06676,-6.50086 4.77032,-9.47113 1.72368,-7.27702 -0.83211,-16.56725 -5.6027,-20.36565 -1.52272,-1.21241 -3.60969,-2.25858 -5.03953,-2.52625 -0.6178,-0.11566 -0.99219,-0.33403 -0.99219,-0.57871 0,-0.3074 -0.2881,-0.373 -1.32308,-0.30128 -0.89849,0.0623 -1.32303,-0.009 -1.32292,-0.22344 2.7e-4,-0.59061 -0.53458,-0.64685 -2.02665,-0.21309 -1.16157,0.33767 -1.53514,0.36143 -1.69202,0.10759 -0.15257,-0.24686 -1.0564,-0.081 -3.73135,0.68489 -7.31026,2.09296 -12.45057,4.11523 -13.86137,5.45326 -0.44349,0.42062 -0.99286,0.76476 -1.22082,0.76476 -0.24748,0 -0.59769,0.47971 -0.86919,1.19062 -0.4555,1.19273 -0.75418,1.44092 -1.08664,0.90299 -0.28666,-0.46383 -0.64018,0.0824 -1.14695,1.77233 -0.39867,1.32942 -0.5564,1.55442 -1.07503,1.53347 -0.48706,-0.0197 -0.72353,0.24313 -1.19032,1.32292 -2.2532,5.21203 -2.66116,11.23209 -1.09542,16.16413 1.84858,5.82296 6.44685,10.38922 12.38771,12.30149 3.38056,1.08816 7.40343,1.34952 10.5228,0.68368 z M 151.8768,124.20379 c 0.27551,-1.17858 1.3157,-1.98437 2.56163,-1.98437 1.22391,0 1.3893,0.39388 0.26021,0.61969 -0.43085,0.0862 -1.28377,0.60707 -1.89538,1.15756 l -1.11201,1.00087 z m 6.25104,-3.55848 c 0,-1.38209 1.31526,-2.39777 3.09572,-2.39059 1.71303,0.007 1.88664,0.41959 0.33327,0.79224 -0.89779,0.21538 -1.75073,0.6595 -2.40939,1.25455 -0.94292,0.85188 -1.0196,0.87773 -1.0196,0.3438 z m -6.87916,-2.02168 c 0,-1.26816 1.81676,-2.34198 3.10686,-1.83635 0.36456,0.14288 0.24424,0.25894 -0.557,0.53731 -0.56211,0.19529 -1.36579,0.68441 -1.78594,1.08695 -0.68736,0.65853 -0.76392,0.67979 -0.76392,0.21209 z m 14.81666,-2.1339 c 0,-1.74586 2.72942,-3.02573 4.61776,-2.16534 1.02776,0.46828 0.80857,0.75117 -0.58286,0.75227 -1.20212,10e-4 -1.72232,0.22484 -3.43958,1.48038 -0.56119,0.4103 -0.59532,0.40644 -0.59532,-0.0673 z m -9.26041,-1.13904 c 0,-0.31917 0.34802,-0.92834 0.77339,-1.35371 0.62656,-0.62656 1.00035,-0.77339 1.96876,-0.77339 1.54843,0 1.80807,0.42911 0.40325,0.66645 -0.69865,0.11804 -1.45925,0.51762 -2.1178,1.11257 -0.95199,0.86007 -1.0276,0.88568 -1.0276,0.34808 z m 17.84092,-2.35601 c 0.85808,-1.65933 3.32029,-2.02066 4.84317,-0.71073 l 0.72576,0.62427 -1.73081,-0.13893 c -1.42427,-0.11433 -1.92563,-0.0395 -2.83084,0.42226 -1.41546,0.72212 -1.47635,0.71022 -1.00728,-0.19687 z m -10.69717,-1.36648 c 0,-0.30909 0.34802,-0.91002 0.77339,-1.33538 0.61969,-0.61969 1.00403,-0.7734 1.93381,-0.7734 0.63822,0 1.38136,0.16156 1.65141,0.35902 0.44144,0.3228 0.35231,0.37236 -0.88317,0.49107 -1.02517,0.0985 -1.64099,0.34647 -2.4248,0.97636 -0.98248,0.78954 -1.05064,0.80786 -1.05064,0.28233 z m 7.40833,-2.54584 c 0,-0.5661 1.20956,-1.684 1.97807,-1.82817 1.00444,-0.18844 2.57292,0.23636 3.06587,0.83033 0.28113,0.33874 0.13275,0.36768 -1.12651,0.21967 -1.15243,-0.13544 -1.70362,-0.0584 -2.68386,0.37522 -0.67846,0.30012 -1.23357,0.48145 -1.23357,0.40295 z m -43.12708,10.09435 c 0,-0.21828 -0.10449,-0.39687 -0.23219,-0.39687 -0.1277,0 -0.38041,0.17859 -0.56156,0.39687 -0.27519,0.33158 -0.23699,0.39688 0.23218,0.39688 0.32278,0 0.56157,-0.16876 0.56157,-0.39688 z m 24.70251,-13.49223 c -0.0834,-0.21745 -0.26024,-0.32828 -0.39289,-0.2463 -0.27743,0.17146 -0.0547,0.64166 0.30394,0.64166 0.13236,0 0.17239,-0.17792 0.089,-0.39536 z m 2.4715,0.0325 c 0.0989,-0.0989 -0.32016,-1.1154 -0.59464,-1.44255 -0.0395,-0.0471 -0.44012,0.10477 -0.8902,0.33752 -0.79382,0.4105 -1.02705,0.90516 -0.6199,1.3148 0.19432,0.1955 1.86608,0.0289 2.10474,-0.20977 z m 2.23019,-0.47274 c 0.56258,-0.16855 1.02288,-0.44844 1.02288,-0.62197 0,-0.41804 -0.54931,-1.98198 -0.69614,-1.98198 -0.21833,0 -2.74344,1.33204 -2.74344,1.44722 0,0.0635 0.13817,0.41864 0.30705,0.78929 0.34441,0.75591 0.64078,0.80753 2.10965,0.36744 z m 3.52475,-1.01201 c 0.37022,-0.14076 0.67313,-0.30386 0.67313,-0.36245 0,-0.14627 -0.82811,-2.1329 -0.93777,-2.2497 -0.14474,-0.15416 -2.50181,0.81045 -2.50181,1.02384 0,0.10798 0.18492,0.63891 0.41093,1.17984 0.43623,1.04405 0.60627,1.07353 2.35552,0.40847 z m 2.64506,-0.84066 c 0.753,-0.34309 0.80202,-0.56939 0.38344,-1.77013 -0.32498,-0.93222 -0.4193,-0.95891 -1.86165,-0.52677 -1.16638,0.34946 -1.18313,0.39789 -0.57701,1.66894 0.4753,0.99671 0.93657,1.13765 2.05522,0.62796 z m 2.27454,-0.89036 c 0.86963,-0.4497 0.9149,-0.59963 0.47356,-1.56826 -0.31234,-0.68551 -0.67945,-0.79229 -1.74347,-0.50714 -0.70503,0.18894 -0.7159,0.27374 -0.19488,1.52071 0.45972,1.10027 0.43087,1.08935 1.46479,0.55469 z m -12.35194,-0.93846 c 1.13457,-0.89245 0.80237,-2.362042 -0.53396,-2.362042 -1.53004,0 -2.7638,1.343642 -2.2004,2.396372 0.37259,0.69619 1.8289,0.67791 2.73436,-0.0343 z m -1.40341,-0.23541 c -0.50538,-0.31235 -0.22101,-1.20059 0.38438,-1.20059 0.33411,0 0.55473,0.20458 0.60568,0.56164 0.0874,0.61255 -0.46057,0.96619 -0.99006,0.63895 z m 15.80564,0.0394 c 0.86037,-0.66203 0.53092,-1.372302 -0.63653,-1.372302 -0.97651,0 -1.05561,0.157762 -0.59068,1.178172 0.36228,0.79511 0.43188,0.80612 1.22721,0.19413 z m 1.23642,-1.594129 c -0.58007,-0.120544 -0.757,0.101952 -0.53551,0.673439 0.17296,0.44627 0.2071,0.44302 0.57511,-0.0547 0.34893,-0.471934 0.34464,-0.538847 -0.0396,-0.618699 z m -8.29681,-1.414393 c 1.00141,-0.562827 1.38069,-1.274197 0.67936,-1.274197 -0.66901,0 -3.06935,0.809681 -3.24555,1.094791 -0.21102,0.341431 0.35232,0.747551 1.04484,0.753242 0.27123,0.0021 0.95584,-0.255998 1.52135,-0.573836 z m 7.06374,-2.078255 c 0.69973,-0.651899 0.71325,-0.830821 0.11604,-1.536597 -0.69219,-0.818025 -1.64709,-0.931656 -2.64584,-0.314846 -0.971,0.599673 -1.16993,1.654876 -0.39687,2.105142 0.79314,0.461959 2.29858,0.331462 2.92667,-0.253699 z m -1.88124,-0.156935 c -0.2653,-0.265295 -0.22924,-1.097436 0.0552,-1.273209 0.4648,-0.287261 1.11098,0.179358 1.03005,0.74382 -0.0802,0.55915 -0.73569,0.878925 -1.08522,0.529389 z"
       id="path2505" />
  </g>
</svg>
